<svg width="17" height="17" viewBox="0 0 17 17" fill="none" xmlns="http://www.w3.org/2000/svg">
<path fill-rule="evenodd" clip-rule="evenodd" d="M10.7918 10.5719L8.53825 8.31725L6.28363 10.5719L4.78125 9.0695L8.53825 5.3125L12.2942 9.0695L10.7918 10.5719ZM0 8.5C0 3.80587 3.81438 0 8.5 0C13.1941 0 17 3.81438 17 8.5C17 13.1941 13.1856 17 8.5 17C3.80587 17 0 13.1856 0 8.5ZM2.125 8.5C2.125 12.0137 4.97888 14.875 8.5 14.875C12.0137 14.875 14.875 12.0211 14.875 8.5C14.875 4.98631 12.0211 2.125 8.5 2.125C4.98631 2.125 2.125 4.97888 2.125 8.5Z" fill="#606060" fill-opacity="0.6"/>
</svg>
