<svg width="35" height="35" viewBox="0 0 35 35" fill="none" xmlns="http://www.w3.org/2000/svg">
<path fill-rule="evenodd" clip-rule="evenodd" d="M22.2184 21.7656L17.5788 17.1238L12.9369 21.7656L9.84375 18.6725L17.5788 10.9375L25.3116 18.6725L22.2184 21.7656ZM0 17.5C0 7.83562 7.85313 0 17.5 0C27.1644 0 35 7.85313 35 17.5C35 27.1644 27.1469 35 17.5 35C7.83562 35 0 27.1469 0 17.5ZM4.375 17.5C4.375 24.7341 10.2506 30.625 17.5 30.625C24.7341 30.625 30.625 24.7494 30.625 17.5C30.625 10.2659 24.7494 4.375 17.5 4.375C10.2659 4.375 4.375 10.2506 4.375 17.5Z" fill="#E50201"/>
</svg>
