<svg width="17" height="17" viewBox="0 0 17 17" fill="none" xmlns="http://www.w3.org/2000/svg">
<path fill-rule="evenodd" clip-rule="evenodd" d="M6.20819 6.42813L8.46175 8.68275L10.7164 6.42813L12.2188 7.9305L8.46175 11.6875L4.70581 7.9305L6.20819 6.42813ZM17 8.5C17 13.1941 13.1856 17 8.5 17C3.80587 17 0 13.1856 0 8.5C0 3.80587 3.81437 0 8.5 0C13.1941 0 17 3.81437 17 8.5ZM14.875 8.5C14.875 4.98631 12.0211 2.125 8.5 2.125C4.98631 2.125 2.125 4.97888 2.125 8.5C2.125 12.0137 4.97888 14.875 8.5 14.875C12.0137 14.875 14.875 12.0211 14.875 8.5Z" fill="#606060" fill-opacity="0.6"/>
</svg>
