<svg width="35" height="35" viewBox="0 0 35 35" fill="none" xmlns="http://www.w3.org/2000/svg">
<path fill-rule="evenodd" clip-rule="evenodd" d="M12.7816 13.2344L17.4212 17.8762L22.0631 13.2344L25.1562 16.3275L17.4212 24.0625L9.68844 16.3275L12.7816 13.2344ZM35 17.5C35 27.1644 27.1469 35 17.5 35C7.83562 35 0 27.1469 0 17.5C0 7.83562 7.85312 0 17.5 0C27.1644 0 35 7.85312 35 17.5ZM30.625 17.5C30.625 10.2659 24.7494 4.375 17.5 4.375C10.2659 4.375 4.375 10.2506 4.375 17.5C4.375 24.7341 10.2506 30.625 17.5 30.625C24.7341 30.625 30.625 24.7494 30.625 17.5Z" fill="#6AC94F"/>
</svg>
